<svg width="1000" height="547" viewBox="0 0 1000 547" fill="none" xmlns="http://www.w3.org/2000/svg">
<path d="M183.1 180L186.3 181.3L193.1 185.6L194.4 186.8L195.1 187.6L195.5 188.4L196.3 191.6L196.7 192.5L197.3 193.4L198.6 194.7L200.2 195.9L201.5 197.3L201.6 197.4L202.4 198.9L202.7 199.8L201.6 206.7L194.1 232.6L187.4 235.4L179.2 237.7L174.6 238.4L173.6 239.1L172.8 240.2L172.4 242.7L172.3 244.3L173.2 251.5L173.8 253.8L174.5 255.5L175.4 257.3L175.7 258.2L175.5 259.5L167.9 271.2L167.2 273.3L167 274.9L170.1 284.9L170.5 287.1L170 288.6L168.9 290.4L166.1 293.8L165 295.9L164.4 297.5L164.1 301.1L163.8 302.1L159 310.7L158.3 312.6L156.2 321.2L154.3 322L151.2 322.4L139.9 321.7L137.6 321.2L136.8 320.7L134.1 318.1L129.2 312.4L128.4 311.8L126.9 310.7L126 310.3L125 309.9L123.6 309.8H122.1L120 310.2L118.7 310.6L117.6 311.1L116.7 311.7L115.6 312.6L112.8 316L106.9 325.4L106 326.8L80.6 315.2L51.6 301.2L45.6 276.1L45.5 270.1L46.4 263.8L48.4 257.7L51.4 252.1L55.9 247.5L66.2 242L70.8 238.2L74.2 232.8L76.7 227.2L79.9 221.7L85.5 216.8L121.6 191.5L129.5 183.5L133.5 180.8L150.2 174.5L155.7 174.1L162.5 175.9L172.3 183.5L177.8 185.8L183.3 182.8L183.4 180.6L183.1 180Z" fill="#FAD800" stroke="#111111" stroke-linecap="round" stroke-linejoin="round"/>
</svg>
