<svg width="1000" height="547" viewBox="0 0 1000 547" fill="none" xmlns="http://www.w3.org/2000/svg">
<path d="M736.4 228.6L737.9 226L740.4 223.2L744.9 221.3L748.2 221.8L750.6 221.3L752.4 216L751.8 215L748.4 211.9L747.6 210.5L747.3 202.8L747.4 201.5L751.1 200.1L756.8 200.7L757.7 200.9L766.7 202.9L772.7 203.1L792.3 200.7L802.2 201.3L806.5 204.9L812 219.2L817.4 225.8L824.4 232.1L830.5 239.5L833.6 249L850.7 240.5L856.3 239L857.2 239.1L858.4 246.7L860 253L860.7 263.9L859.2 287.4L859.3 288.7L859.5 289.7L860 290.5L861.7 292.7L862.2 293.6L862.6 294.5L862.9 295.4L863.3 297.8L863.1 305.2L862 314.1L859.8 324.5L851.2 346.8L850.5 354.1L847.8 358.3L836.2 370.7L828.1 369.4L824.2 369.6L809.5 374.2L806.7 374.5L804.9 374.2L804.3 373.6L803.7 372.5L803.4 371.7L802.5 370.7L801.2 369.5L795.7 366.2L794.9 365.6L794.3 364.8L793.9 364L792.8 357.1L792.2 355L790.8 352.4L789.2 350.3L787.9 349.5L786.5 349L771.9 350.2L769.8 350.6L767.9 351.4L764.9 353.2L762.8 353.8L762.2 353.3L762.1 352.7L762.6 351.8L764.8 348.8L765.2 347.9L765.3 346.9L764.7 345.9L763.8 345L761.1 343.3L760.3 342.6L759.7 341.9L759.4 341L759.1 339.9L758.9 338.8L758.1 337.3L756.7 335.4L753.2 332.8L751.8 331.4L751.1 329.1L749.9 327.2L745.1 322.9L743.2 320.6L742 318.8L741.4 309.1V308.1L741.8 307.3L742.5 306.6L754.8 297.7L756.5 296.7L759.4 295.7L760.3 295.2L761 294.5L761.6 293.8L761.9 292.7V291.3L761.2 289L760.2 287.5L759.4 286.5L745.2 276.8L743.1 274.9L741.7 273.4L741.4 272.4L741.1 271.4L741 267.6L741.3 265.5L741.5 264.8L741.7 264.1L742.2 263.3L743.3 261.9L744 261.3L744.8 260.8L745.4 260.1L746 259.3L746.4 258.5L746.8 257.5L747 256.4V254.1L745.8 250.9L744.3 248L743.7 246.3L743.6 245L742.9 241.9L738.5 231.5L736.4 228.6Z" fill="#FAD800" stroke="#111111" stroke-linecap="round" stroke-linejoin="round"/>
</svg>
