<svg width="1000" height="547" viewBox="0 0 1000 547" fill="none" xmlns="http://www.w3.org/2000/svg">
<path d="M520.2 293.8L520.7 282.7L521.4 281.5L522.4 280.1L524.8 280.2L527 280.7L530.9 282L533.5 281.6L537.1 280.4L548.8 275.2L551.3 274.6L554 275.2L556.2 275.4L557.5 274.6L558.7 273.3L560.6 270.8L562 270.1L563.2 270L568.6 273.9L570.4 274.4L573.1 274.6L585.1 274.5L587.5 274.9L592.7 275.2L596.8 276L597.7 276.4L604.6 281.5L605.5 282L609.4 283.4L612 284.9L612.9 285.3L615.5 286L616.5 286.5L617.1 287.4L617.5 289.5L617.8 290.5L618.3 291.3L619 291.9L620.4 292.4L629.9 293.6L633.4 294.5L639.5 290.4L640.5 299.5L652.1 311.1L656.4 317.9L632.8 335.1L630.7 341.9L625.1 349.6L617.6 354.4L609.3 352.5L598.5 365.9L598 368.3L591.8 369.4L589.7 372.4L588.8 384.1L585.6 395.6L568.5 428.2L566.9 432.3L566 437.2L565.5 449.2L564.6 451.8L558 458.2L554.5 463.4L552.3 467.6L548.7 470.5L541.4 471.6L536.9 473.3L534.1 477.1L532.6 482.6V483.4L532.8 483.5L527.2 480.9V480.8L528.1 469.2L528.4 468.1L528.7 467.2L529.2 466.2L529.7 465.4L530.3 464.7L531.8 463.5L533.5 462.5L536.2 461.4L539.7 459.7L540.5 459.2L541.2 458.4L541.8 457.7L542.3 456.9L542.4 454.7L540.7 438.9L540.8 437.7L540.9 436.5L541.2 435.5L541.7 434.7L542.3 434L544.6 432.3L545.1 431.4L545.4 430.5L545.9 428.3L546.1 427.1L545.7 425.5L544.8 423.5L542.4 420.3L539.8 417.8L536.5 415.8L534.2 414L531.8 411.3L531.2 409.7L530.7 407.5L530.2 400.8V399L531.8 390.6V390.5V389.9L532.1 388.6L532.4 387.7L532.6 386.8L535.5 378.9L535.9 376.7L536 374.2L535.9 373.1L535.6 372L526.3 352.2L525.3 350.9L522.4 349.8L520.7 349.5L519.1 349.6L510.2 352.4L509 352.6H507.8L506.6 352.5L505.9 350.9L505.5 348.3L505.9 341.7L505.8 335.4L503 327.8L510.3 320.6L511.1 319.3L512 317.5L513.3 312.1L520.2 293.8Z" fill="#FAD800" stroke="#111111" stroke-linecap="round" stroke-linejoin="round"/>
</svg>
