<svg width="1000" height="547" viewBox="0 0 1000 547" fill="none" xmlns="http://www.w3.org/2000/svg">
<path d="M490.3 217.5L501.4 217.2L511.2 218.1L516.4 216.8L522 214.7L545.1 207.1L549.6 205L552.1 203L555 199.2L562.7 195.4L580 192.8V193.5L582.3 192.6L591.8 191.1L601.4 191.8L629.8 200.9L646.4 202.1L650 203.7L653.4 207L653.1 208.2L653 209.1L652.8 209.3L652.4 209.6H652.3L650.8 209.4L651.2 210.3L653.1 214.5L652.9 219L651.6 223.7L650.8 229.4L651.8 233.1L655.9 243.3L656.2 249.4L652.9 254.9L652.2 255.5L650.5 257L652.9 261.8L652.3 266.4L649.7 270.3L645.6 272.9L646.4 278.2L642.9 283.6L639.5 290.3V290.4L633.4 294.5L629.9 293.6L620.4 292.4L619 291.9L618.3 291.3L617.8 290.5L617.5 289.5L617.1 287.4L616.5 286.5L615.5 286L612.9 285.3L612 284.9L609.4 283.4L605.5 282L604.6 281.5L597.7 276.4L596.8 276L592.7 275.2L587.5 274.9L585.1 274.5L573.1 274.6L570.4 274.4L568.6 273.9L563.2 270L562 270.1L560.6 270.8L558.7 273.3L557.5 274.6L556.2 275.4L554 275.2L551.3 274.6L548.8 275.2L537.1 280.4L533.5 281.6L530.9 282L527 280.7L524.8 280.2L522.4 280.1L521.4 281.5L520.7 282.7L520.2 293.8L507.2 290.2L503.8 288.3L503.4 287.3L501 283.6L497.4 279.7L495.9 277.7L495 276L494.5 273.5L494 272L492.1 268.6L491.7 267L491.4 265.3L490 262.3L488.2 260.2L485.1 258.1L482.8 255.7L475.5 245.3L473.7 242L472.8 239.5L473 238.3L473.3 237.3L473.6 236.4L474.2 235.5L474.8 234.9L475.6 234.3L480.6 231.4L482 230.2L483.3 228.8L484.4 227.2L484.8 226.3L490.3 217.5Z" fill="#FAD800" stroke="#111111" stroke-linecap="round" stroke-linejoin="round"/>
</svg>
