<svg width="1000" height="547" viewBox="0 0 1000 547" fill="none" xmlns="http://www.w3.org/2000/svg">
<path d="M324.5 181.7L320.1 182.9H314.5L308.9 181.8L304.7 178L303.6 169.6L310.8 144.8L317.9 145.3L318.8 144.9L319.7 144.4L320.4 143.7L321.3 142.5L325.7 134.4L326.4 133.8L327.2 133.3L328.1 132.9L329.1 132.6L330.1 132.4L333.9 132.2L335.1 132L336.1 131.7L337.1 131.4L337.9 130.9L338.7 130.3L340 129L347.3 118.9L348 117.1L348.1 115.6L347.8 111.3V103.6L361.8 97.9L365.1 94.2L366.6 86.4L371.4 72.4L364.5 68L362.7 65.6L361.9 64.9L356.3 62L355 60.9L354.2 60.1L352.5 57.2L351.3 54.3L350.8 53.6L348.3 50.8L334 37.4L348.5 39.7L360.1 45.3L379.3 49.4L388.8 56.1L406.1 61.3L409.7 58.1L415.1 47.6L418.1 44.5L421.4 43.6L423.6 44L425.5 45.7L427.6 48.7L429.5 52.2L430.3 56.1L430 60L428.5 63.8L432.8 67.5L445.6 69L451.6 72L454 76.8L455.5 88.7L457.2 92.2L466.7 99.4L470.1 103.6L473.5 109.3L474.9 114.2L475.1 116L475.5 119.2L476.7 123.3L480 125.7L483.7 124.9L488.1 122.3L493.4 120L499.2 120.1L508.5 126.1L516.4 136L522 147.6L524.5 158.5L531.1 157.5L547.5 158.8L552 157L555.9 154.6L559.2 154.3L561.9 158.7L561.5 165.2L559.3 171.6L559.1 177.1L565 180.9L573 182L574.8 182.6L577.5 185L579.3 187.6L580.2 190.8L580 192.8L562.7 195.4L555 199.2L552.1 203L549.6 205L545.1 207.1L522 214.7L516.4 216.8L511.2 218.1L501.4 217.2L490.3 217.5L484.1 216.8L478.3 214.6L471.5 215.1L463.5 211.3L462.1 210.4L460.4 208.8L458.4 205.9L457.4 203.8L456.8 202L456.5 201L456.4 200.1V199L456.7 197.4V197.3L456.5 196.6L455.8 195.6L447.6 185.8L445.9 182.8L445.3 182L439 177.5L436.3 175.1L434.4 174L424.7 170.5L420 168.1L418.7 168H417.5L410.9 171.4L400.5 176.2L396.3 175.2L391 171L388.6 175.8L383.4 175.7L375.6 172.3L372.7 173.3L367.8 176.8L366.3 177.6L363.6 177.2L360 175.5L358.8 175.2L352.7 174.3L345.9 170.4L342 169.6L338.4 172.4L334.9 174.3L330.5 175.2L327.4 176.4L326.2 179L324.5 181.7Z" fill="#FAD800" stroke="#111111" stroke-linecap="round" stroke-linejoin="round"/>
</svg>
