<svg width="910" height="499" viewBox="0 0 910 499" fill="none" xmlns="http://www.w3.org/2000/svg">
<path d="M138.1 156L141.3 157.3L148.1 161.6L149.4 162.8L150.1 163.6L150.5 164.4L151.3 167.6L151.7 168.5L152.3 169.4L153.6 170.7L155.2 171.9L156.5 173.3L156.6 173.4L157.4 174.9L157.7 175.8L156.6 182.7L149.1 208.6L142.4 211.4L134.2 213.7L129.6 214.4L128.6 215.1L127.8 216.2L127.4 218.7L127.3 220.3L128.2 227.5L128.8 229.8L129.5 231.5L130.4 233.3L130.7 234.2L130.5 235.5L122.9 247.2L122.2 249.3L122 250.9L125.1 260.9L125.5 263.1L125 264.6L123.9 266.4L121.1 269.8L120 271.9L119.4 273.5L119.1 277.1L118.8 278.1L114 286.7L113.3 288.6L111.2 297.2L109.3 298L106.2 298.4L94.9 297.7L92.6 297.2L91.8 296.7L89.1 294.1L84.2 288.4L83.4 287.8L81.9 286.7L81 286.3L80 285.9L78.6 285.8H77.1L75 286.2L73.7 286.6L72.6 287.1L71.7 287.7L70.6 288.6L67.8 292L61.9 301.4L61 302.8L35.6 291.2L6.6 277.2L0.599998 252.1L0.5 246.1L1.4 239.8L3.4 233.7L6.4 228.1L10.9 223.5L21.2 218L25.8 214.2L29.2 208.8L31.7 203.2L34.9 197.7L40.5 192.8L76.6 167.5L84.5 159.5L88.5 156.8L105.2 150.5L110.7 150.1L117.5 151.9L127.3 159.5L132.8 161.8L138.3 158.8L138.4 156.6L138.1 156Z" fill="#FAD800" stroke="#111111" stroke-linecap="round" stroke-linejoin="round"/>
<path d="M149.1 208.6L156.6 182.7L157.7 175.8L157.4 174.9L156.6 173.4L156.5 173.3L155.2 171.9L153.6 170.7L152.3 169.4L151.7 168.5L151.3 167.6L150.5 164.4L150.1 163.6L149.4 162.8L148.1 161.6L141.3 157.3L138.1 156L135.7 150.4L135.4 147.4L136.4 144.2L152.5 115.8L160 107.6L169.4 100.3L179.3 95.7L219.6 86L222.1 83.6L222 77.6L220.8 76L216 73.6L214.4 72L213.7 69.5L213 63.6L212.5 61.8L210.3 57.6L209.3 56.1L207.1 54.1L204.5 52.9L196.6 51.9L194.3 46.4L196.5 43.1L200.3 40.4L202.7 36.6L201.6 32.1L198.9 28.3L197.2 23.9L199.7 17.8L205 13.8L210.5 14.3L214.6 18.4L215.7 25.6L220.8 21.9L230.1 10.7L232.7 9.6L236.8 7.8L242.7 8.6L247 10.9L251.2 12.4L257.1 11.2L265.7 2.4L269.5 0.9L270 8.4L271.9 5.4L272.3 4.5L283.1 12.4L283.2 12.5L289 13.4L303.3 26.8L305.8 29.6L306.3 30.3L307.5 33.2L309.2 36.1L310 36.9L311.3 38L316.9 40.9L317.7 41.6L319.5 44L326.4 48.4L321.6 62.4L320.1 70.2L316.8 73.9L302.8 79.6V87.3L303.1 91.6L303 93.1L302.3 94.9L295 105L293.7 106.3L292.9 106.9L292.1 107.4L291.1 107.7L290.1 108L288.9 108.2L285.1 108.4L284.1 108.6L283.1 108.9L282.2 109.3L281.4 109.8L280.7 110.4L276.3 118.5L275.4 119.7L274.7 120.4L273.8 120.9L272.9 121.3L265.8 120.8L258.6 145.6L259.7 154L263.9 157.8L269.5 158.9H275.1L279.5 157.7L275.5 179.1L274.8 184.6L274.9 185.8L274.3 193.3L273.9 194.5L273.1 195.5L271.2 196.4H269.8H268.5L267.5 196.5L266.7 196.9L263.7 201.8L262.5 202.6L261.4 202.7L260.5 202.4L259.5 202.3L258.6 202.6L257.8 203.1L257.2 203.9L256.7 206L256.2 216.4L256.6 223.3L255.9 231.6L249.3 249.6L247.5 260.3L229.6 256.9L224.9 255.3L224.3 254.5L223.7 253.7L221.5 248.1L216.5 243.4L208.5 237.5L204.9 235.3L202.4 234.2L201.4 234.4L200.6 235L200 235.7L199 237.3L197.8 240.1L197.3 242.2V245.7L197 246.6L196.2 247.5L194.8 248.2L192.1 248.8L190.4 248.4L189.2 248L188.3 247.3L187.7 246.6L187.2 245.7L186.8 244.5L185.9 243.2L184.2 241.4L181.8 241L180.6 240.2L180.1 239.4L180.3 238.4L180.7 237.6L181.4 236.8L182.8 235.6L183.4 235L183.9 234.1L184.2 233L184.3 232L183.9 230L182.2 227.2L179.9 225.1L178.7 223.8L177.9 222.7L176.7 219.9L175.6 218.4L169.5 212.4L167.3 210.8L165.6 210H164.4L163.3 210.1L161.2 210.7L157.8 210.8L149.1 208.6Z" fill="#0F43A6" stroke="#111111" stroke-linecap="round" stroke-linejoin="round"/>
<path d="M279.5 157.7L275.1 158.9H269.5L263.9 157.8L259.7 154L258.6 145.6L265.8 120.8L272.9 121.3L273.8 120.9L274.7 120.4L275.4 119.7L276.3 118.5L280.7 110.4L281.4 109.8L282.2 109.3L283.1 108.9L284.1 108.6L285.1 108.4L288.9 108.2L290.1 108L291.1 107.7L292.1 107.4L292.9 106.9L293.7 106.3L295 105L302.3 94.9L303 93.1L303.1 91.6L302.8 87.3V79.6L316.8 73.9L320.1 70.2L321.6 62.4L326.4 48.4L319.5 44L317.7 41.6L316.9 40.9L311.3 38L310 36.9L309.2 36.1L307.5 33.2L306.3 30.3L305.8 29.6L303.3 26.8L289 13.4L303.5 15.7L315.1 21.3L334.3 25.4L343.8 32.1L361.1 37.3L364.7 34.1L370.1 23.6L373.1 20.5L376.4 19.6L378.6 20L380.5 21.7L382.6 24.7L384.5 28.2L385.3 32.1L385 36L383.5 39.8L387.8 43.5L400.6 45L406.6 48L409 52.8L410.5 64.7L412.2 68.2L421.7 75.4L425.1 79.6L428.5 85.3L429.9 90.2L430.1 92L430.5 95.2L431.7 99.3L435 101.7L438.7 100.9L443.1 98.3L448.4 96L454.2 96.1L463.5 102.1L471.4 112L477 123.6L479.5 134.5L486.1 133.5L502.5 134.8L507 133L510.9 130.6L514.2 130.3L516.9 134.7L516.5 141.2L514.3 147.6L514.1 153.1L520 156.9L528 158L529.8 158.6L532.5 161L534.3 163.6L535.2 166.8L535 168.8L517.7 171.4L510 175.2L507.1 179L504.6 181L500.1 183.1L477 190.7L471.4 192.8L466.2 194.1L456.4 193.2L445.3 193.5L439.1 192.8L433.3 190.6L426.5 191.1L418.5 187.3L417.1 186.4L415.4 184.8L413.4 181.9L412.4 179.8L411.8 178L411.5 177L411.4 176.1V175L411.7 173.4V173.3L411.5 172.6L410.8 171.6L402.6 161.8L400.9 158.8L400.3 158L394 153.5L391.3 151.1L389.4 150L379.7 146.5L375 144.1L373.7 144H372.5L365.9 147.4L355.5 152.2L351.3 151.2L346 147L343.6 151.8L338.4 151.7L330.6 148.3L327.7 149.3L322.8 152.8L321.3 153.6L318.6 153.2L315 151.5L313.8 151.2L307.7 150.3L300.9 146.4L297 145.6L293.4 148.4L289.9 150.3L285.5 151.2L282.4 152.4L281.2 155L279.5 157.7Z" fill="#FAD800" stroke="#111111" stroke-linecap="round" stroke-linejoin="round"/>
<path d="M445.3 193.5L456.4 193.2L466.2 194.1L471.4 192.8L477 190.7L500.1 183.1L504.6 181L507.1 179L510 175.2L517.7 171.4L535 168.8V169.5L537.3 168.6L546.8 167.1L556.4 167.8L584.8 176.9L601.4 178.1L605 179.7L608.4 183L608.1 184.2L608 185.1L607.8 185.3L607.4 185.6H607.3L605.8 185.4L606.2 186.3L608.1 190.5L607.9 195L606.6 199.7L605.8 205.4L606.8 209.1L610.9 219.3L611.2 225.4L607.9 230.9L607.2 231.5L605.5 233L607.9 237.8L607.3 242.4L604.7 246.3L600.6 248.9L601.4 254.2L597.9 259.6L594.5 266.3V266.4L588.4 270.5L584.9 269.6L575.4 268.4L574 267.9L573.3 267.3L572.8 266.5L572.5 265.5L572.1 263.4L571.5 262.5L570.5 262L567.9 261.3L567 260.9L564.4 259.4L560.5 258L559.6 257.5L552.7 252.4L551.8 252L547.7 251.2L542.5 250.9L540.1 250.5L528.1 250.6L525.4 250.4L523.6 249.9L518.2 246L517 246.1L515.6 246.8L513.7 249.3L512.5 250.6L511.2 251.4L509 251.2L506.3 250.6L503.8 251.2L492.1 256.4L488.5 257.6L485.9 258L482 256.7L479.8 256.2L477.4 256.1L476.4 257.5L475.7 258.7L475.2 269.8L462.2 266.2L458.8 264.3L458.4 263.3L456 259.6L452.4 255.7L450.9 253.7L450 252L449.5 249.5L449 248L447.1 244.6L446.7 243L446.4 241.3L445 238.3L443.2 236.2L440.1 234.1L437.8 231.7L430.5 221.3L428.7 218L427.8 215.5L428 214.3L428.3 213.3L428.6 212.4L429.2 211.5L429.8 210.9L430.6 210.3L435.6 207.4L437 206.2L438.3 204.8L439.4 203.2L439.8 202.3L445.3 193.5Z" fill="#FAD800" stroke="#111111" stroke-linecap="round" stroke-linejoin="round"/>
<path d="M691.4 204.6L692.9 202L695.4 199.2L699.9 197.3L703.2 197.8L705.6 197.3L707.4 192L706.8 191L703.4 187.9L702.6 186.5L702.3 178.8L702.4 177.5L706.1 176.1L711.8 176.7L712.7 176.9L721.7 178.9L727.7 179.1L747.3 176.7L757.2 177.3L761.5 180.9L767 195.2L772.4 201.8L779.4 208.1L785.5 215.5L788.6 225L805.7 216.5L811.3 215L812.2 215.1L813.4 222.7L815 229L815.7 239.9L814.2 263.4L814.3 264.7L814.5 265.7L815 266.5L816.7 268.7L817.2 269.6L817.6 270.5L817.9 271.4L818.3 273.8L818.1 281.2L817 290.1L814.8 300.5L806.2 322.8L805.5 330.1L802.8 334.3L791.2 346.7L783.1 345.4L779.2 345.6L764.5 350.2L761.7 350.5L759.9 350.2L759.3 349.6L758.7 348.5L758.4 347.7L757.5 346.7L756.2 345.5L750.7 342.2L749.9 341.6L749.3 340.8L748.9 340L747.8 333.1L747.2 331L745.8 328.4L744.2 326.3L742.9 325.5L741.5 325L726.9 326.2L724.8 326.6L722.9 327.4L719.9 329.2L717.8 329.8L717.2 329.3L717.1 328.7L717.6 327.8L719.8 324.8L720.2 323.9L720.3 322.9L719.7 321.9L718.8 321L716.1 319.3L715.3 318.6L714.7 317.9L714.4 317L714.1 315.9L713.9 314.8L713.1 313.3L711.7 311.4L708.2 308.8L706.8 307.4L706.1 305.1L704.9 303.2L700.1 298.9L698.2 296.6L697 294.8L696.4 285.1V284.1L696.8 283.3L697.5 282.6L709.8 273.7L711.5 272.7L714.4 271.7L715.3 271.2L716 270.5L716.6 269.8L716.9 268.7V267.3L716.2 265L715.2 263.5L714.4 262.5L700.2 252.8L698.1 250.9L696.7 249.4L696.4 248.4L696.1 247.4L696 243.6L696.3 241.5L696.5 240.8L696.7 240.1L697.2 239.3L698.3 237.9L699 237.3L699.8 236.8L700.4 236.1L701 235.3L701.4 234.5L701.8 233.5L702 232.4V230.1L700.8 226.9L699.3 224L698.7 222.3L698.6 221L697.9 217.9L693.5 207.5L691.4 204.6Z" fill="#FAD800" stroke="#111111" stroke-linecap="round" stroke-linejoin="round"/>
<path d="M594.5 266.4V266.3L597.9 259.6L601.4 254.2L600.6 248.9L604.7 246.3L607.3 242.4L607.9 237.8L605.5 233L607.2 231.5L607.9 230.9L617.9 230.4L624.9 226.1L631.7 223.2L646.9 219.9L650.4 220.1L656.4 222.4L659.2 222.7L659.6 221.6V219.3L659.9 216.9L661.1 215.5L663.5 215.4L666.5 215.9L669.5 216.8L671.9 217.8L674.5 213L678.6 211.5L683.1 211.1L687.2 209.7L690.2 206.9L691.4 204.6L693.5 207.5L697.9 217.9L698.6 221L698.7 222.3L699.3 224L700.8 226.9L702 230.1V232.4L701.8 233.5L701.4 234.5L701 235.3L700.4 236.1L699.8 236.8L699 237.3L698.3 237.9L697.2 239.3L696.7 240.1L696.5 240.8L696.3 241.5L696 243.6L696.1 247.4L696.4 248.4L696.7 249.4L698.1 250.9L700.2 252.8L714.4 262.5L715.2 263.5L716.2 265L716.9 267.3V268.7L716.6 269.8L716 270.5L715.3 271.2L714.4 271.7L711.5 272.7L709.8 273.7L697.5 282.6L696.8 283.3L696.4 284.1V285.1L697 294.8L698.2 296.6L700.1 298.9L704.9 303.2L706.1 305.1L706.8 307.4L708.2 308.8L711.7 311.4L713.1 313.3L713.9 314.8L714.1 315.9L714.4 317L714.7 317.9L715.3 318.6L716.1 319.3L718.8 321L719.7 321.9L720.3 322.9L720.2 323.9L719.8 324.8L717.6 327.8L717.1 328.7L717.2 329.3L717.8 329.8L719.9 329.2L722.9 327.4L724.8 326.6L726.9 326.2L741.5 325L742.9 325.5L744.2 326.3L745.8 328.4L747.2 331L747.8 333.1L748.9 340L749.3 340.8L749.9 341.6L750.7 342.2L756.2 345.5L757.5 346.7L758.4 347.7L758.7 348.5L759.3 349.6L759.9 350.2L761.7 350.5L764.5 350.2L779.2 345.6L783.1 345.4L791.2 346.7L788.7 350L787.9 354.9L788.1 366.6L789.6 372.2V373.4L789.2 374.7L787.8 376.4L786.7 377.3L785.7 378.1L784.1 379L783.4 379.6L782.8 381.1L782.5 383.6L782.7 393.5L783.8 400.3L784.1 401.3L784.6 402.2L788.1 407.8L788.5 408.7L788.9 409.7L789 410.6L784.2 438.4L784.3 440L784.9 442.2L784.6 444.6L779.7 460.7L778.9 461.6L777.1 462.1H775.9L774.6 461.8L770.7 460.4L767.5 458.5L764.4 456.2L763.6 455.9L762.6 459.7L762.1 462.6L760 492.8V492.9L757.4 492.4H754.9L752.1 493.5L729.1 466.7L728.1 466.3L727.1 466.1L725.9 466L715.7 467.6L714.8 467.4L714.1 466.6L714 464.7L714.2 463.5L714.6 462.2L717.4 457.1L717.2 456L716.3 454.8L713.8 453.5L712.4 452.3L711.5 450.9V445.2L711.3 444.1L711 442.9L710.3 441.8L709.1 440.4L707.5 440.2L706.3 440.3L702.8 442.2L700.9 443L699.8 443.3H698.8L697.7 443.2L696.8 442.8L696 442.3L694.5 441.1L693.7 440.6L692.8 440.2L691.7 440.1L690.8 440.2L689.7 439.4L688.1 438L684.8 434L682.9 432.4L681.2 431.4L673.8 430.6L671.8 430.1L669 428.8L668.2 428.3L667.5 427.8L664.9 424.4L661.1 418.3L659.1 414.2L657.1 407.3L656.5 404.3L656.3 402L656.4 399.5L656.2 398.3L655.6 397.3L654.1 396.8L652.3 397.5L651.7 397.4L651.1 397L650.7 395.8L649.5 388.7L649.4 386.2L648.8 381L648.7 379.9L648.8 378.7L649.1 377.7L649.7 377L650.4 376.8L651 377L651.4 377.4L651.9 378L652.5 378.5H653.2L653.7 377.9L654.1 376.9L654.3 374.5L654.2 372.2L654.3 371L654.6 370L655.1 369.1L655.7 368.4L657.7 366.5L657.8 366.4L658.3 365.4L658.4 364.6L658.2 363.1L656.7 358L656.4 356V354.4L657.2 351.4V350.5L656.7 349L652.2 339.4L651.9 338.4L651.7 337.3V335L651.8 333.8L652.1 332.8L652.6 332L653.2 331.3L654 330.8L656.1 330.1L656.9 329.7L657.5 329L658.1 328.2L658.4 327.2L658.6 326.2L658.4 324.8L657.9 323.2L656.8 320.5L656.1 317.3V316.1L656.3 315L658.1 310V308.9L656.9 307.9L654.6 307.2L645.4 306L642.5 305L639.2 302.7L636.7 300.3L633.5 295.3L631.2 292.4L626.8 292.1L611.4 293.9L607.1 287.1L595.5 275.5L594.5 266.4Z" fill="#0F43A6" stroke="#111111" stroke-linecap="round" stroke-linejoin="round"/>
<path d="M791.2 346.7L802.8 334.3L805.5 330.1L806.2 322.8L814.8 300.5L817 290.1L818.1 281.2L818.3 273.8L817.9 271.4L817.6 270.5L817.2 269.6L816.7 268.7L815 266.5L814.5 265.7L814.3 264.7L814.2 263.4L815.7 239.9L815 229L813.4 222.7L812.2 215.1L814.3 215.6L819.8 219.2L822.4 219.9L824.1 219.1L828.9 215.3L831.9 214.3L835.6 214.5L843 216.1L846.6 215.8L850.2 213.2L853.3 209.3L857.1 206.1L862.7 205.9L866.3 208.7L869.9 218.9L873 223.5L874.9 224.6L880.2 226.7L882.5 227.9L888.4 233.1L899 242.2L905.6 244.9L902.3 250.5L894.7 268.1L892.8 274.4L895.2 280.8L893.4 284.9L889.6 288.5L886.3 293.2L885 300.1L885.3 314.4L884.4 321.4L875.4 343.3L873.2 353.9L877.2 362.7L881 364.1L889 361.5L894.4 363.6L897.3 367L899.3 371.6L899.9 376.8L899 381.7L892.6 389.1L863 402.7L862.7 402.6L859.8 400.8L857.9 397.7L855.1 389.4L844.5 407.8L841.8 418.6L848.7 423.4L853.1 425.1L865.5 437.1L872.6 441.9L873.2 444.1V448.8L870.2 457L862.7 462.9L834.8 477L827.2 483.1L825.9 489.2L834.6 495.2L821.3 498.3L769.6 494.7L760 492.9V492.8L762.1 462.6L762.6 459.7L763.6 455.9L764.4 456.2L767.5 458.5L770.7 460.4L774.6 461.8L775.9 462.1H777.1L778.9 461.6L779.7 460.7L784.6 444.6L784.9 442.2L784.3 440L784.2 438.4L789 410.6L788.9 409.7L788.5 408.7L788.1 407.8L784.6 402.2L784.1 401.3L783.8 400.3L782.7 393.5L782.5 383.6L782.8 381.1L783.4 379.6L784.1 379L785.7 378.1L786.7 377.3L787.8 376.4L789.2 374.7L789.6 373.4V372.2L788.1 366.6L787.9 354.9L788.7 350L791.2 346.7ZM897.1 483L896.8 478.1L899.5 476.1L904.7 477.8L907.9 484.9L908.1 490.8L909.5 494.7L906.4 496.5L901.5 494.7L898.3 496.2V492L896.3 487.9L897.1 483ZM882.3 463.8L885.2 465.6L887.7 471.2L885.5 474.4L883 476.8L878.1 472.4L876.9 466.3L879.1 464.1L882.3 463.8Z" fill="#0F43A6" stroke="#111111" stroke-linecap="round" stroke-linejoin="round"/>
<path d="M61 302.8L61.9 301.4L67.8 292L70.6 288.6L71.7 287.7L72.6 287.1L73.7 286.6L75 286.2L77.1 285.8H78.6L80 285.9L81 286.3L81.9 286.7L83.4 287.8L84.2 288.4L89.1 294.1L91.8 296.7L92.6 297.2L94.9 297.7L106.2 298.4L109.3 298L111.2 297.2L113.3 288.6L114 286.7L118.8 278.1L119.1 277.1L119.4 273.5L120 271.9L121.1 269.8L123.9 266.4L125 264.6L125.5 263.1L125.1 260.9L122 250.9L122.2 249.3L122.9 247.2L130.5 235.5L130.7 234.2L130.4 233.3L129.5 231.5L128.8 229.8L128.2 227.5L127.3 220.3L127.4 218.7L127.8 216.2L128.6 215.1L129.6 214.4L134.2 213.7L142.4 211.4L149.1 208.6L157.8 210.8L161.2 210.7L163.3 210.1L164.4 210H165.6L167.3 210.8L169.5 212.4L175.6 218.4L176.7 219.9L177.9 222.7L178.7 223.8L179.9 225.1L182.2 227.2L183.9 230L184.3 232L184.2 233L183.9 234.1L183.4 235L182.8 235.6L181.4 236.8L180.7 237.6L180.3 238.4L180.1 239.4L180.6 240.2L181.8 241L184.2 241.4L185.9 243.2L186.8 244.5L187.2 245.7L187.7 246.6L188.3 247.3L189.2 248L190.4 248.4L192.1 248.8L194.8 248.2L196.2 247.5L197 246.6L197.3 245.7V242.2L197.8 240.1L199 237.3L200 235.7L200.6 235L201.4 234.4L202.4 234.2L204.9 235.3L208.5 237.5L216.5 243.4L221.5 248.1L223.7 253.7L224.3 254.5L224.9 255.3L229.6 256.9L247.5 260.3L251.8 261.7L252.7 262.1L253.5 262.7L254.2 263.3L254.7 264.1L255 265.1L255.2 266.1L254.7 267.6L253.7 269.1L251 271.5L248.6 273.2L243.1 276.4L241 278.3L236.6 283.8L235.1 285L233.6 285.6L231 285.9L230.1 286.1L228.6 287L227.8 287.7L227 289.1L226.2 291.2L225.1 295.8L224.5 300.3L225 308.8L224.9 310.1L223.9 311.9L222 314.5L213.8 322.7L213.1 323.2L212.3 324L211.4 325.2L210.6 327.1L209.9 330.3L209.4 335L208.3 336.5L206.7 338.4L197.2 346.8L195.2 350L191.2 359.1L190.2 361.6L187.6 361L163.8 353.2L151.2 355.8L115.6 356.2L109.9 352.3L106.1 338.1L104.7 329.2L100 325.3L92.2 320.5L61.8 303.2L61 302.8Z" fill="#0F43A6" stroke="#111111" stroke-linecap="round" stroke-linejoin="round"/>
<path d="M247.5 260.3L249.3 249.6L255.9 231.6L256.6 223.3L256.2 216.4L256.7 206L257.2 203.9L257.8 203.1L258.6 202.6L259.5 202.3L260.5 202.4L261.4 202.7L262.5 202.6L263.7 201.8L266.7 196.9L267.5 196.5L268.5 196.4H269.8H271.2L273.1 195.5L273.9 194.5L274.3 193.3L274.9 185.8L274.8 184.6L275.5 179.1L279.5 157.7L281.2 155L282.4 152.4L285.5 151.2L289.9 150.3L293.4 148.4L297 145.6L300.9 146.4L307.7 150.3L313.8 151.2L315 151.5L318.6 153.2L318.2 166.2L316.2 174.5L316.1 176.6L316.3 178L318.6 179.8L319.5 181.1L320.6 183.1L322.5 187.5L323.6 189.6L324.6 191L326.2 192L328 192.9L331 193.8L332.1 193.9L335.6 193.6H336.8L337.9 193.8L339 194L340 194.4L341.2 195.1L342.6 196.2L344.6 197.3L345.2 198.1L345.3 198.7L344.3 201.3L343.8 203.5L343.7 203.9L343.4 204.2L340.6 204.1L339.6 204.4L338.9 205.1L338.5 206.3L336.6 227.9L336.1 230.1L335.7 231L334.9 231.5L333 232.2L332.1 232.7L331.4 233.3L330.2 234.7L329.5 236.6L329 238.4L328.3 245.2L327.5 248.2L326.3 251L325.6 254.6L325.2 260.8L324.9 262.4L324.6 263.4L322 268.3L320.3 273.1L320.5 274.6L321.1 275.4L322.1 275.7L323.3 275.8L325.2 278.3L324.8 282.1L325.1 285.8L325.5 286.8L326 287.6L326.6 288.3L328.1 289.4L328.8 290.3L329.2 291.6L329.9 294.6L330.5 296.3L331.2 297.4L332 298L337.4 300.9L338.1 301.4L339.7 302.8L342.2 306.2L342.6 307.6L342.4 308.8L341.2 311.1L340.3 313.3L340.4 314.5L341.2 315.3L344.1 316.7L344.5 317.6L344.3 318.5L343.7 319.2L343 319.8L342.4 322L342.2 325.7L342.9 341.6L342.7 342.8L340.3 348.9L339.5 352.3L339.4 354.1L339.6 355.5L345.6 365.3L347.7 369.9L348.3 370.6L349.1 371L350.2 371.2L351.4 371.1L353.5 370.6L357.4 369.3L359.6 369L361 369.2L362 369.5L364.8 370.7L366.1 377L367.2 378.6H368.1L369.7 378.7L371.7 379.2L375.4 380.7L376.7 382L377 383.1L376 384.8L374.2 387L373.7 387.8L373.1 388.5L370.2 393.7L369.2 396L368 399.6L350.1 388.6L324.6 377.3L297 370.7H284.2L274.4 368.4L221.1 368.9L198.3 363.1L190.2 361.6L191.2 359.1L195.2 350L197.2 346.8L206.7 338.4L208.3 336.5L209.4 335L209.9 330.3L210.6 327.1L211.4 325.2L212.3 324L213.1 323.2L213.8 322.7L222 314.5L223.9 311.9L224.9 310.1L225 308.8L224.5 300.3L225.1 295.8L226.2 291.2L227 289.1L227.8 287.7L228.6 287L230.1 286.1L231 285.9L233.6 285.6L235.1 285L236.6 283.8L241 278.3L243.1 276.4L248.6 273.2L251 271.5L253.7 269.1L254.7 267.6L255.2 266.1L255 265.1L254.7 264.1L254.2 263.3L253.5 262.7L252.7 262.1L251.8 261.7L247.5 260.3Z" fill="#0F43A6" stroke="#111111" stroke-linecap="round" stroke-linejoin="round"/>
<path d="M368 399.6L369.2 396L370.2 393.7L373.1 388.5L373.7 387.8L374.2 387L376 384.8L377 383.1L376.7 382L375.4 380.7L371.7 379.2L369.7 378.7L368.1 378.6H367.2L366.1 377L364.8 370.7L365.6 367.5L366.7 366.8L369.4 363.8L371.3 359.7L374.5 350.1L375.3 345.9L375.5 343.2L374.8 341.3L371.9 336.2L370.8 333.1L370.1 329.8L370.3 328L370.8 326.8L371.7 326.3L372.7 326.1H373.9L375 326.3L381 328.2L382.2 328.4L383.3 328.5L385.2 327L396.5 312.6L410.1 299.8L426.6 305.9L433.1 309.4L440.2 311.6H441.5L443.2 311.3L443.9 311.1L444.7 310.7L445.3 310L446.1 308.2L446.8 307.4L447.6 307L448.6 306.7L453.3 306.1L455.4 305.4L458 303.8L460.8 311.4L460.9 317.7L460.5 324.3L460.9 326.9L461.6 328.5L462.8 328.6H464L465.2 328.4L474.1 325.6L475.7 325.5L477.4 325.8L480.3 326.9L481.3 328.2L490.6 348L490.9 349.1L491 350.2L490.9 352.7L490.5 354.9L487.6 362.8L487.4 363.7L487.1 364.6L486.8 365.9V366.5V366.6L485.2 375V376.8L485.7 383.5L486.2 385.7L486.8 387.3L489.2 390L491.5 391.8L494.8 393.8L497.4 396.3L499.8 399.5L500.7 401.5L501.1 403.1L500.9 404.3L500.4 406.5L500.1 407.4L499.6 408.3L497.3 410L496.7 410.7L496.2 411.5L495.9 412.5L495.8 413.7L495.7 414.9L497.4 430.7L497.3 432.9L496.8 433.7L496.2 434.4L495.5 435.2L494.7 435.7L491.2 437.4L488.5 438.5L486.8 439.5L485.3 440.7L484.7 441.4L484.2 442.2L483.7 443.2L483.4 444.1L483.1 445.2L482.2 456.8V456.9L394.6 416L368 399.6Z" fill="#0F43A6" stroke="#111111" stroke-linecap="round" stroke-linejoin="round"/>
<path d="M475.2 269.8L475.7 258.7L476.4 257.5L477.4 256.1L479.8 256.2L482 256.7L485.9 258L488.5 257.6L492.1 256.4L503.8 251.2L506.3 250.6L509 251.2L511.2 251.4L512.5 250.6L513.7 249.3L515.6 246.8L517 246.1L518.2 246L523.6 249.9L525.4 250.4L528.1 250.6L540.1 250.5L542.5 250.9L547.7 251.2L551.8 252L552.7 252.4L559.6 257.5L560.5 258L564.4 259.4L567 260.9L567.9 261.3L570.5 262L571.5 262.5L572.1 263.4L572.5 265.5L572.8 266.5L573.3 267.3L574 267.9L575.4 268.4L584.9 269.6L588.4 270.5L594.5 266.4L595.5 275.5L607.1 287.1L611.4 293.9L587.8 311.1L585.7 317.9L580.1 325.6L572.6 330.4L564.3 328.5L553.5 341.9L553 344.3L546.8 345.4L544.7 348.4L543.8 360.1L540.6 371.6L523.5 404.2L521.9 408.3L521 413.2L520.5 425.2L519.6 427.8L513 434.2L509.5 439.4L507.3 443.6L503.7 446.5L496.4 447.6L491.9 449.3L489.1 453.1L487.6 458.6V459.4L487.8 459.5L482.2 456.9V456.8L483.1 445.2L483.4 444.1L483.7 443.2L484.2 442.2L484.7 441.4L485.3 440.7L486.8 439.5L488.5 438.5L491.2 437.4L494.7 435.7L495.5 435.2L496.2 434.4L496.8 433.7L497.3 432.9L497.4 430.7L495.7 414.9L495.8 413.7L495.9 412.5L496.2 411.5L496.7 410.7L497.3 410L499.6 408.3L500.1 407.4L500.4 406.5L500.9 404.3L501.1 403.1L500.7 401.5L499.8 399.5L497.4 396.3L494.8 393.8L491.5 391.8L489.2 390L486.8 387.3L486.2 385.7L485.7 383.5L485.2 376.8V375L486.8 366.6V366.5V365.9L487.1 364.6L487.4 363.7L487.6 362.8L490.5 354.9L490.9 352.7L491 350.2L490.9 349.1L490.6 348L481.3 328.2L480.3 326.9L477.4 325.8L475.7 325.5L474.1 325.6L465.2 328.4L464 328.6H462.8L461.6 328.5L460.9 326.9L460.5 324.3L460.9 317.7L460.8 311.4L458 303.8L465.3 296.6L466.1 295.3L467 293.5L468.3 288.1L475.2 269.8Z" fill="#FAD800" stroke="#111111" stroke-linecap="round" stroke-linejoin="round"/>
<path d="M611.4 293.9L626.8 292.1L631.2 292.4L633.5 295.3L636.7 300.3L639.2 302.7L642.5 305L645.4 306L654.6 307.2L656.9 307.9L658.1 308.9V310L656.3 315L656.1 316.1V317.3L656.8 320.5L657.9 323.2L658.4 324.8L658.6 326.2L658.4 327.2L658.1 328.2L657.5 329L656.9 329.7L656.1 330.1L654 330.8L653.2 331.3L652.6 332L652.1 332.8L651.8 333.8L651.7 335V337.3L651.9 338.4L652.2 339.4L656.7 349L657.2 350.5V351.4L656.4 354.4V356L656.7 358L658.2 363.1L658.4 364.6L658.3 365.4L657.8 366.4L657.7 366.5L655.7 368.4L655.1 369.1L654.6 370L654.3 371L654.2 372.2L654.3 374.5L654.1 376.9L653.7 377.9L653.2 378.5H652.5L651.9 378L651.4 377.4L651 377L650.4 376.8L649.7 377L649.1 377.7L648.8 378.7L648.7 379.9L648.8 381L649.4 386.2L649.5 388.7L650.7 395.8L651.1 397L651.7 397.4L652.3 397.5L654.1 396.8L655.6 397.3L656.2 398.3L656.4 399.5L656.3 402L656.5 404.3L657.1 407.3L659.1 414.2L661.1 418.3L664.9 424.4L667.5 427.8L668.2 428.3L669 428.8L671.8 430.1L673.8 430.6L681.2 431.4L682.9 432.4L684.8 434L688.1 438L689.7 439.4L690.8 440.2L691.7 440.1L692.8 440.2L693.7 440.6L694.5 441.1L696 442.3L696.8 442.8L697.7 443.2L698.8 443.3H699.8L700.9 443L702.8 442.2L706.3 440.3L707.5 440.2L709.1 440.4L710.3 441.8L711 442.9L711.3 444.1L711.5 445.2V450.9L712.4 452.3L713.8 453.5L716.3 454.8L717.2 456L717.4 457.1L714.6 462.2L714.2 463.5L714 464.7L714.1 466.6L714.8 467.4L715.7 467.6L725.9 466L727.1 466.1L728.1 466.3L729.1 466.7L752.1 493.5L748.6 494.9L716.2 497.6L681.4 492.3L672.4 495.2L667.6 493.6L662.1 492.4V490L670.6 489.4L671.2 483.5L666.7 476.1L659.8 471.3L661.3 474.3L665.8 480.6L667.5 484.5L653.9 484L647.3 484.7L641.6 487.1L645.3 488.7L648.2 488.2L651.7 487.2L657 487.1V490L648.3 493.6L638.6 493.3L631.1 488.7L628.8 479.2L632.5 480.9L633.9 481.8L639.1 476.6V474.2L632.6 471.3L625.6 461.3L620.9 458.4L622.1 463.9L624.3 468.5L625.4 472.6L623.7 476.6L618.2 473.4L602.3 469.4L595.5 465.8L589.3 454.7L586.4 452.9L582 452.5L569.6 450H564.1L548.9 452.9L527.7 453.4L523 455.5L525.6 457.5L528.3 459L531.1 459.5L533.5 458.4L544.1 460.8L574.3 457.6L577.6 458.1L582.5 460.8L585.1 463.2L589.8 468.9L592.9 471.3V474.2L585.9 473L580.8 472L569.6 468.7V471.3L600.4 477.6L616.5 482.9L623.7 490L621 494.6L614.3 493.5L606.8 489.5L601.9 485.8L596.4 483L499.4 464.9L487.8 459.5L487.6 459.4V458.6L489.1 453.1L491.9 449.3L496.4 447.6L503.7 446.5L507.3 443.6L509.5 439.4L513 434.2L519.6 427.8L520.5 425.2L521 413.2L521.9 408.3L523.5 404.2L540.6 371.6L543.8 360.1L544.7 348.4L546.8 345.4L553 344.3L553.5 341.9L564.3 328.5L572.6 330.4L580.1 325.6L585.7 317.9L587.8 311.1L611.4 293.9Z" fill="#0F43A6" stroke="#111111" stroke-linecap="round" stroke-linejoin="round"/>
<path d="M365.9 147.4L372.5 144H373.7L375 144.1L379.7 146.5L389.4 150L391.3 151.1L394 153.5L400.3 158L400.9 158.8L402.6 161.8L410.8 171.6L411.5 172.6L411.7 173.3V173.4L411.4 175V176.1L411.5 177L411.8 178L412.4 179.8L413.4 181.9L415.4 184.8L417.1 186.4L418.5 187.3L426.5 191.1L433.3 190.6L439.1 192.8L445.3 193.5L439.8 202.3L439.4 203.2L438.3 204.8L437 206.2L435.6 207.4L430.6 210.3L429.8 210.9L429.2 211.5L428.6 212.4L428.3 213.3L428 214.3L427.8 215.5L428.7 218L430.5 221.3L437.8 231.7L440.1 234.1L443.2 236.2L445 238.3L446.4 241.3L446.7 243L447.1 244.6L449 248L449.5 249.5L450 252L450.9 253.7L452.4 255.7L456 259.6L458.4 263.3L458.8 264.3L462.2 266.2L475.2 269.8L468.3 288.1L467 293.5L466.1 295.3L465.3 296.6L458 303.8L455.4 305.4L453.3 306.1L448.6 306.7L447.6 307L446.8 307.4L446.1 308.2L445.3 310L444.7 310.7L443.9 311.1L443.2 311.3L441.5 311.6H440.2L433.1 309.4L426.6 305.9L410.1 299.8L409.8 288.2L409 286.2L408.3 284.2L406.5 281.9L399.9 269.4L399.4 267.6L400 259.3L399.7 257.6L399 256.5L398 256.2L396.6 255.2L395 253.6L390.3 246.6L389.6 246L388.6 245.6L387.5 245.4L385.1 245.3L382.5 243.2L379.1 239.2L369.1 223.5L368 220.5L368.7 219.9L371.4 218.7L372.4 218L373.1 217.2L373.8 215.7L373.4 214.9L371.1 211.9L363.3 199.1L359.8 191.7L359 188.8L358.6 185.5L358.8 184.9L359.4 184.4L360.1 183.8L360.8 183.2L361.8 181.6L362.1 180.7L362.4 179.6L362.7 177.3L363.2 175.2L363.4 173.6V173.2L363.5 172.5L363.2 168.8L362 162.4L361.9 160.7L362.2 159.5L364 155.8L365.7 151.2L365.9 147.4Z" fill="#0F43A6" stroke="#111111" stroke-linecap="round" stroke-linejoin="round"/>
<path d="M318.6 153.2L321.3 153.6L322.8 152.8L327.7 149.3L330.6 148.3L338.4 151.7L343.6 151.8L346 147L351.3 151.2L355.5 152.2L365.9 147.4L365.7 151.2L364 155.8L362.2 159.5L361.9 160.7L362 162.4L363.2 168.8L363.5 172.5L363.4 173.2V173.6L363.2 175.2L362.7 177.3L362.4 179.6L362.1 180.7L361.8 181.6L360.8 183.2L360.1 183.8L359.4 184.4L358.8 184.9L358.6 185.5L359 188.8L359.8 191.7L363.3 199.1L371.1 211.9L373.4 214.9L373.8 215.7L373.1 217.2L372.4 218L371.4 218.7L368.7 219.9L368 220.5L369.1 223.5L379.1 239.2L382.5 243.2L385.1 245.3L387.5 245.4L388.6 245.6L389.6 246L390.3 246.6L395 253.6L396.6 255.2L398 256.2L399 256.5L399.7 257.6L400 259.3L399.4 267.6L399.9 269.4L406.5 281.9L408.3 284.2L409 286.2L409.8 288.2L410.1 299.8L396.5 312.6L385.2 327L383.3 328.5L382.2 328.4L381 328.2L375 326.3L373.9 326.1H372.7L371.7 326.3L370.8 326.8L370.3 328L370.1 329.8L370.8 333.1L371.9 336.2L374.8 341.3L375.5 343.2L375.3 345.9L374.5 350.1L371.3 359.7L369.4 363.8L366.7 366.8L365.6 367.5L364.8 370.7L362 369.5L361 369.2L359.6 369L357.4 369.3L353.5 370.6L351.4 371.1L350.2 371.2L349.1 371L348.3 370.6L347.7 369.9L345.6 365.3L339.6 355.5L339.4 354.1L339.5 352.3L340.3 348.9L342.7 342.8L342.9 341.6L342.2 325.7L342.4 322L343 319.8L343.7 319.2L344.3 318.5L344.5 317.6L344.1 316.7L341.2 315.3L340.4 314.5L340.3 313.3L341.2 311.1L342.4 308.8L342.6 307.6L342.2 306.2L339.7 302.8L338.1 301.4L337.4 300.9L332 298L331.2 297.4L330.5 296.3L329.9 294.6L329.2 291.6L328.8 290.3L328.1 289.4L326.6 288.3L326 287.6L325.5 286.8L325.1 285.8L324.8 282.1L325.2 278.3L323.3 275.8L322.1 275.7L321.1 275.4L320.5 274.6L320.3 273.1L322 268.3L324.6 263.4L324.9 262.4L325.2 260.8L325.6 254.6L326.3 251L327.5 248.2L328.3 245.2L329 238.4L329.5 236.6L330.2 234.7L331.4 233.3L332.1 232.7L333 232.2L334.9 231.5L335.7 231L336.1 230.1L336.6 227.9L338.5 206.3L338.9 205.1L339.6 204.4L340.6 204.1L343.4 204.2L343.7 203.9L343.8 203.5L344.3 201.3L345.3 198.7L345.2 198.1L344.6 197.3L342.6 196.2L341.2 195.1L340 194.4L339 194L337.9 193.8L336.8 193.6H335.6L332.1 193.9L331 193.8L328 192.9L326.2 192L324.6 191L323.6 189.6L322.5 187.5L320.6 183.1L319.5 181.1L318.6 179.8L316.3 178L316.1 176.6L316.2 174.5L318.2 166.2L318.6 153.2Z" fill="#0F43A6" stroke="#111111" stroke-linecap="round" stroke-linejoin="round"/>
</svg>
